<svg id="Layer_1" enable-background="new 0 0 512 512" height="512" viewBox="0 0 512 512" width="512" xmlns="http://www.w3.org/2000/svg"><g><circle cx="249.636" cy="245.667" fill="#ff7b79" r="95"/><circle cx="100" cy="90" fill="#b8ecbc" r="60"/><circle cx="368.667" cy="442.333" fill="#b8ecbc" r="45"/><g fill="#a0c8ff"><circle cx="75" cy="220.951" r="35"/><circle cx="442" cy="317" r="35"/><circle cx="260" cy="55" r="35"/></g><circle cx="80" cy="422" fill="#ffda8f" r="70"/><circle cx="427" cy="135.951" fill="#ffda8f" r="75"/><g><circle cx="479.277" cy="189.73" r="10"/><path d="m505.32 102.86c-4.28-10.12-10.41-19.21-18.22-27.01-7.8-7.81-16.89-13.94-27.01-18.22-10.48-4.43-21.61-6.68-33.09-6.68s-22.61 2.25-33.09 6.68c-10.12 4.28-19.21 10.41-27.01 18.22-7.81 7.8-13.94 16.89-18.22 27.01-4.43 10.48-6.68 21.62-6.68 33.09 0 11.48 2.25 22.61 6.68 33.09.619 1.463 1.288 2.898 1.983 4.317l-16.438 10.178c-15.962-21.673-40.039-37.015-67.71-41.505l1.718-42.798c20.893-3.88 36.767-22.232 36.767-44.232 0-24.813-20.187-45-45-45s-45 20.187-45 45c0 20.748 14.118 38.251 33.248 43.433l-1.697 42.282c-23.105.67-44.361 8.84-61.416 22.156l-29.607-30.32c9.066-11.801 14.472-26.553 14.472-42.551 0-38.598-31.402-70-70-70s-70 31.402-70 70 31.402 70 70 70c15.402 0 29.649-5.011 41.221-13.473l29.382 30.089c-10.985 12.557-19.03 27.745-23.058 44.482l-27.716-3.915c-1.922-23.056-21.287-41.233-44.83-41.233-24.813 0-45 20.187-45 45s20.187 45 45 45c19.165 0 35.56-12.047 42.036-28.963l27.714 3.915c-.071 1.58-.113 3.167-.113 4.764 0 26.529 9.895 50.788 26.181 69.291l-42.462 43.365c-13.441-10.231-30.197-16.322-48.355-16.322-44.112 0-80 35.888-80 80s35.888 80 80 80 80-35.888 80-80c0-18.761-6.508-36.02-17.362-49.677l42.754-43.664c17.77 13.787 40.064 22.008 64.244 22.008 16.733 0 32.56-3.941 46.613-10.933l36.265 61.204c-11.538 10.09-18.848 24.901-18.848 41.396 0 30.327 24.673 55 55 55s55-24.673 55-55-24.673-55-55-55c-6.663 0-13.052 1.193-18.967 3.373l-36.469-61.549c13.259-10.123 24.045-23.324 31.28-38.531l53.009 19.534c-.342 2.231-.519 4.515-.519 6.84 0 24.813 20.187 45 45 45s45-20.187 45-45-20.187-45-45-45c-15.38 0-28.977 7.76-37.097 19.566l-53.566-19.74c2.153-8.366 3.299-17.132 3.299-26.16 0-16.084-3.64-31.333-10.132-44.972l17.023-10.54c1.692 2.037 3.481 4.006 5.373 5.895 7.8 7.81 16.89 13.94 27.01 18.22 10.48 4.43 21.61 6.68 33.09 6.68 4.86 0 9.73-.41 14.48-1.23 2.64-.45 4.93-1.9 6.48-4.08 1.54-2.19 2.14-4.84 1.69-7.47-.83-4.81-4.97-8.31-9.85-8.31-.57 0-1.14.05-1.7.15-3.64.62-7.38.94-11.1.94-17.35 0-33.67-6.77-45.96-19.04-12.27-12.29-19.04-28.61-19.04-45.96s6.77-33.67 19.04-45.96c12.29-12.27 28.61-19.04 45.96-19.04s33.67 6.77 45.96 19.04c12.27 12.29 19.04 28.61 19.04 45.96 0 4.35-.43 8.7-1.28 12.92-1.09 5.41 2.42 10.69 7.82 11.78.66.13 1.33.2 1.99.2 4.74 0 8.86-3.38 9.79-8.03 1.12-5.52 1.68-11.19 1.68-16.87 0-11.47-2.25-22.61-6.68-33.09zm-430.32 143.091c-13.785 0-25-11.215-25-25s11.215-25 25-25 25 11.215 25 25-11.215 25-25 25zm328.667 196.382c0 19.299-15.701 35-35 35s-35-15.701-35-35 15.701-35 35-35 35 15.702 35 35zm38.333-150.333c13.785 0 25 11.215 25 25s-11.215 25-25 25-25-11.215-25-25 11.215-25 25-25zm-207-237c0-13.785 11.215-25 25-25s25 11.215 25 25-11.215 25-25 25-25-11.215-25-25zm-185 35c0-27.57 22.43-50 50-50s50 22.43 50 50-22.43 50-50 50-50-22.43-50-50zm30 392c-33.084 0-60-26.916-60-60s26.916-60 60-60 60 26.916 60 60-26.916 60-60 60zm169.636-151.333c-46.869 0-85-38.131-85-85s38.131-85 85-85 85 38.131 85 85-38.131 85-85 85z"/></g></g></svg>